<svg width="1568" height="502" viewBox="0 0 1568 502" fill="none" xmlns="http://www.w3.org/2000/svg">
<g clip-path="url(#clip0_115_370)">
<path d="M549.98 447.02C508.62 508.53 137.8 527.06 108.56 460.24C102.25 443.08 100.83 431.15 101.2 427.64C102.13 418.78 106.12 412.63 112.24 408.26C121.5 401.67 131.23 396.24 141.18 391.41C183.1 371.05 226.67 358.36 271.5 351.6C290.27 348.77 309.11 347.16 327.17 346.24C375.12 344.76 421.88 349.32 468.18 361.43C480.02 364.53 491.85 367.87 503.28 372.94C515.37 378.31 527.65 383.1 539.38 389.77C543 391.83 546.64 393.87 549.55 397.45C554.92 404.09 562.04 425.53 549.99 447.01L549.98 447.02Z" fill="#0183C7"/>
<path d="M507.72 437.02C474.48 478.39 179.09 492.58 156.13 447.99C151.19 436.53 150.11 428.56 150.43 426.2C151.22 420.26 154.42 416.13 159.31 413.18C166.71 408.72 174.49 405.04 182.44 401.76C215.92 387.93 250.68 379.23 286.41 374.48C301.37 372.49 316.39 371.33 330.77 370.63C368.96 369.41 406.18 372.24 443 380.12C452.41 382.14 461.82 384.31 470.9 387.66C480.5 391.19 490.26 394.35 499.57 398.75C502.44 400.11 505.33 401.46 507.63 403.84C511.88 408.26 517.44 422.58 507.74 437.01L507.72 437.02Z" fill="white"/>
<path d="M262.91 298.92C260.02 279.52 252.52 232.09 248.63 204.33C247.95 199.5 247.39 195.25 246.97 191.87L216.51 197.77L108.29 218.75L92.98 221.71C93.24 223.58 93.54 225.62 93.87 227.79C98.44 257.35 109.6 312.81 115.12 337.89C121.46 366.66 132.13 414.98 137.16 433.43C142.19 451.88 283.3 417.02 278.53 395.23C273.76 373.44 266.47 322.88 262.9 298.93L262.91 298.92ZM241.52 346.61C242.26 354.8 242.26 354.75 232.9 356.91C209.29 362.38 185.69 367.87 162.11 373.44C159.85 373.97 158.87 373.66 158.48 371.25C156.65 359.75 153.75 348.45 152.45 336.85C151.59 329.14 151.34 321.46 152.63 313.76C154.9 300.18 162.24 290.63 175.23 285.91C185.91 282.03 196.93 280.47 208.07 284.06C219.05 287.6 226.07 295.64 231.18 305.56C237.55 317.93 240.03 331.32 241.53 346.6L241.52 346.61Z" fill="#28D2FF"/>
<path d="M241.52 346.61C242.26 354.8 242.26 354.75 232.9 356.91C209.29 362.38 185.69 367.87 162.11 373.44C159.85 373.97 158.87 373.66 158.48 371.25C156.65 359.75 153.75 348.45 152.45 336.85C151.59 329.14 151.34 321.46 152.63 313.76C154.9 300.18 162.24 290.63 175.23 285.91C185.91 282.03 196.93 280.47 208.07 284.06C219.05 287.6 226.07 295.64 231.18 305.56C237.55 317.93 240.03 331.32 241.53 346.6L241.52 346.61Z" fill="white"/>
<path d="M294.72 165.32C250.76 126.9 202.49 94.64 152.02 65.55C149.14 63.88 147.83 61.96 147.26 58.76C144.01 40.5 140.55 22.29 137.15 4.05999C136.78 2.03999 136.34 -0.220012 133.6 0.00998786C131.02 0.229988 131.1 2.44999 130.96 4.35999C133.55 14.49 135.06 24.83 137.05 35.08C137.83 39.03 139 42.94 139 47.01C140.42 51.19 140.63 55.64 141.79 59.86C142.53 62.54 141.69 64.25 139.93 66.16C111.86 96.6 85.69 128.59 61.93 162.51C52.39 176.14 43.13 189.96 34.9 204.45C33.62 206.69 33.81 207.96 36.08 209.29C40.82 212.07 45.8 214.27 50.95 216.15C64.93 221.26 79.2 225.33 93.87 227.78C95.63 228.08 97.39 228.35 99.16 228.59C103.12 228.82 107.07 229.02 111.02 229.15C118.68 229.42 126.35 229.44 134.01 228.94C163.46 227 192.52 223.05 220.66 214.57C227.75 212.43 234.79 209.99 241.76 207.24C244.07 206.33 246.34 205.34 248.6 204.32C250.02 203.7 251.44 203.06 252.86 202.45C257.28 199.66 261.74 196.92 266.11 194.07C276.36 187.36 286.64 180.67 295.08 171.63C298.18 168.32 298.12 168.29 294.7 165.31L294.72 165.32ZM195.54 131.8C195.21 132.33 194.88 132.86 194.55 133.38C190.75 139.49 187.46 144.89 183.97 150.16C182.54 152.31 182.47 154.08 183.55 156.38C186.05 161.76 188.31 167.26 190.59 172.74C190.96 173.64 192.11 174.68 191.2 175.61C190.37 176.45 189.17 175.61 188.18 175.36C182.41 173.96 176.63 172.58 170.92 170.98C168.61 170.33 166.93 170.66 165.13 172.33C160.61 176.54 155.91 180.55 151.27 184.62C150.66 185.15 150.1 186.11 149.23 185.83C148.06 185.45 148.55 184.2 148.48 183.34C148.02 177.18 147.53 171.02 147.26 164.86C147.16 162.57 146.33 161.19 144.33 160.09C139.24 157.27 134.25 154.25 129.26 151.28C128.27 150.69 127.03 150.36 126.33 148.68C131.68 146.49 136.91 143.98 142.38 142.19C147.17 140.61 149.81 138.08 150.4 132.84C150.95 127.92 152.49 123.1 153.63 118.24C153.8 117.47 153.62 116.34 154.54 116.07C155.69 115.73 156.07 116.96 156.64 117.62C160.62 122.33 164.64 127.03 168.48 131.86C169.92 133.68 171.42 134.2 173.68 133.95C179.86 133.24 186.06 132.69 193.01 132.04C193.85 131.96 194.69 131.87 195.55 131.8H195.54Z" fill="#FF2C36"/>
<path d="M190.58 172.74C190.95 173.64 192.1 174.68 191.19 175.61C190.36 176.45 189.16 175.61 188.17 175.36C182.4 173.96 176.62 172.58 170.91 170.98C168.6 170.33 166.92 170.66 165.12 172.33C160.6 176.54 155.9 180.55 151.26 184.62C150.65 185.15 150.09 186.11 149.22 185.83C148.05 185.45 148.54 184.2 148.47 183.34C148.01 177.18 147.52 171.02 147.25 164.86C147.15 162.57 146.32 161.19 144.32 160.09C139.23 157.27 134.24 154.25 129.25 151.28C128.26 150.69 127.02 150.36 126.32 148.68C131.67 146.49 136.9 143.98 142.37 142.19C147.16 140.61 149.8 138.08 150.39 132.84C150.94 127.92 152.48 123.1 153.62 118.24C153.79 117.47 153.61 116.34 154.53 116.07C155.68 115.73 156.06 116.96 156.63 117.62C160.61 122.33 164.63 127.03 168.47 131.86C169.91 133.68 171.41 134.2 173.67 133.95C179.85 133.24 186.05 132.69 193 132.04L194.55 133.38C190.75 139.49 187.46 144.89 183.97 150.16C182.54 152.31 182.47 154.08 183.55 156.38C186.05 161.76 188.31 167.26 190.59 172.74H190.58Z" fill="white"/>
<path d="M511.53 270.29L422.05 271.05L401.67 271.22C402.7 289.84 403.73 315.52 404.27 334.17C404.85 353.77 406.25 395.12 405.55 413.17C404.85 431.22 522.31 438.89 523.69 423.46C525.06 408.04 526.67 368 527.62 344.16C528.5 321.85 528.8 292.48 527.92 270.16L511.52 270.3L511.53 270.29ZM445.87 314.51C454.23 310.06 463.25 309.73 472.32 311.3C483.34 313.21 490.56 319.78 494.31 330.28C496.43 336.23 497.33 342.4 497.74 348.66C498.35 358.09 497.66 367.5 497.83 376.93C497.86 378.9 497.13 379.29 495.25 379.19C475.66 378.11 456.06 377.11 436.46 376.12C428.69 375.72 428.69 375.77 428.12 369.14C427.13 356.75 427.19 345.71 430.51 334.95C433.17 326.31 437.61 318.9 445.86 314.51H445.87Z" fill="#28D2FF"/>
<path d="M497.74 348.66C498.35 358.09 497.66 367.5 497.83 376.93C497.86 378.9 497.13 379.29 495.25 379.19C475.66 378.11 456.06 377.11 436.46 376.12C428.69 375.72 428.69 375.77 428.12 369.14C427.13 356.75 427.19 345.71 430.51 334.95C433.17 326.31 437.61 318.9 445.86 314.51C454.22 310.06 463.24 309.73 472.31 311.3C483.33 313.21 490.55 319.78 494.3 330.28C496.42 336.23 497.32 342.4 497.73 348.66H497.74Z" fill="white"/>
<path d="M575.7 248.8C567.07 238.43 557.72 228.73 548.16 219.24C524.39 195.58 498.96 173.82 472.24 153.56C470.57 152.28 469.65 151.05 469.86 148.8C470.18 145.27 469.71 141.69 470.25 138.15C469.68 134.9 470.06 131.62 470.11 128.35C470.24 119.9 469.96 111.44 470.59 102.99C470.21 101.5 469.96 99.72 467.87 99.91C465.66 100.12 465.64 101.98 465.62 103.64C465.51 118.66 465.36 133.68 465.37 148.69C465.37 151.31 464.6 153.03 462.55 154.77C426.47 185.17 392.58 217.77 363.03 254.66C360.74 257.53 360.69 257.56 363.62 259.76C371.64 265.77 380.79 269.63 389.91 273.51C393.81 275.17 397.75 276.7 401.67 278.29C401.81 278.32 401.93 278.35 402.07 278.39C405.11 279.13 408.14 279.92 411.21 280.53C414.83 281.27 418.45 281.89 422.07 282.44C448.03 286.28 474.1 285.37 500.21 282.46C503.93 282.04 507.62 281.47 511.31 280.79C516.88 279.78 522.42 278.53 527.95 277.22C528.04 277.19 528.11 277.17 528.2 277.13C540.97 272.94 553.02 267.17 564.61 260.42C568.44 258.19 572.09 255.72 575.47 252.83C577.1 251.44 577.07 250.39 575.73 248.79L575.7 248.8ZM492.91 219.87C489.34 222.95 485.8 226.08 482.15 229.04C480.71 230.21 480.25 231.43 480.5 233.26C481.16 238.22 481.65 243.2 482.17 248.17C482.24 248.87 482.8 249.79 481.92 250.26C481.27 250.61 480.68 249.93 480.13 249.59C475.85 247.01 471.53 244.47 467.32 241.77C465.66 240.7 464.27 240.67 462.52 241.52C458.19 243.6 453.77 245.52 449.38 247.47C448.62 247.8 447.79 248.66 447.01 248.11C446.15 247.49 446.93 246.5 447.09 245.73C448.13 241.03 449.13 236.33 450.37 231.69C450.9 229.7 450.58 228.3 449.15 226.79C445.31 222.77 441.64 218.59 437.29 213.8C443.78 213.27 449.4 212.75 455.04 212.4C456.87 212.28 458 211.64 458.89 209.99C461.25 205.58 463.79 201.27 466.29 196.94C466.65 196.33 466.78 195.3 467.74 195.4C468.51 195.48 468.52 196.41 468.77 197C470.37 200.71 472.28 204.33 473.43 208.17C474.65 212.27 477.11 213.91 481.16 214.48C485.78 215.14 490.3 216.38 494.88 217.37C494.56 218.81 493.62 219.24 492.92 219.86L492.91 219.87Z" fill="#FF2C36"/>
<path d="M494.88 217.38C494.56 218.82 493.62 219.25 492.92 219.87C489.35 222.95 485.81 226.08 482.16 229.04C480.72 230.21 480.26 231.43 480.51 233.26C481.17 238.22 481.66 243.2 482.18 248.17C482.25 248.87 482.81 249.79 481.93 250.26C481.28 250.61 480.69 249.93 480.14 249.59C475.86 247.01 471.54 244.47 467.33 241.77C465.67 240.7 464.28 240.67 462.53 241.52C458.2 243.6 453.78 245.52 449.39 247.47C448.63 247.8 447.8 248.66 447.02 248.11C446.16 247.49 446.94 246.5 447.1 245.73C448.14 241.03 449.14 236.33 450.38 231.69C450.91 229.7 450.59 228.3 449.16 226.79C445.32 222.77 441.65 218.59 437.3 213.8C443.79 213.27 449.41 212.75 455.05 212.4C456.88 212.28 458.01 211.64 458.9 209.99C461.26 205.58 463.8 201.27 466.3 196.94C466.66 196.33 466.79 195.3 467.75 195.4C468.52 195.48 468.53 196.41 468.78 197C470.38 200.71 472.29 204.33 473.44 208.17C474.66 212.27 477.12 213.91 481.17 214.48C485.79 215.14 490.31 216.38 494.89 217.37L494.88 217.38Z" fill="white"/>
<path d="M470.58 103C469.95 111.44 470.23 119.91 470.1 128.36C470.05 131.62 469.67 134.9 470.24 138.15C475.61 135.8 480.9 133.25 486.76 132.28C490.13 131.72 492.87 132.38 495.29 135.12C498.74 139.04 502.86 142.22 507.64 144.47C513.79 147.36 520.09 147.85 526.38 145.18C532.84 142.45 539.13 142.84 545.42 145.52C551.63 148.17 557.87 150.76 564.71 151.2C571.25 151.62 577.42 150.59 582.24 145.59C583.23 144.56 584.03 143.33 584.8 142.13C585.44 141.14 585.22 140.5 583.87 140.62C575.1 141.41 568.66 136.74 562.51 131.45C559.3 128.69 556.09 125.92 552.99 123.04C548.87 119.22 544.4 118.13 538.93 120C533.83 121.75 528.47 122.58 523.02 122.32C514.91 121.94 507.94 118.66 501.72 113.67C493.85 107.36 485.15 103.21 474.9 102.88C473.46 102.83 472.02 102.96 470.58 103.01V103Z" fill="#28D2FF"/>
<path d="M130.96 4.35999C133.56 14.49 135.06 24.84 137.06 35.08C137.83 39.03 139 42.93 139.01 47.01C131.97 45.33 124.99 43.37 117.65 43.46C113.43 43.52 110.24 44.91 107.9 48.76C104.55 54.27 100.24 59.04 94.92 62.81C88.07 67.66 80.52 69.62 72.3 67.75C63.85 65.83 56.29 67.68 49.23 72.31C42.26 76.88 35.24 81.39 27.02 83.4C19.16 85.33 11.44 85.42 4.49 80.4C3.06 79.37 1.83 78.04 0.620001 76.75C-0.369999 75.68 -0.239999 74.85 1.43 74.71C12.26 73.76 19.07 66.69 25.4 58.92C28.7 54.87 32 50.8 35.15 46.63C39.32 41.09 44.53 38.79 51.58 39.88C58.16 40.89 64.85 40.74 71.43 39.24C81.21 37.01 88.96 31.51 95.44 24.1C103.63 14.72 113.31 7.78999 125.69 5.14999C127.43 4.77999 129.21 4.61999 130.97 4.36999L130.96 4.35999Z" fill="#28D2FF"/>
<path d="M254.47 494.89C249.36 468.48 246.09 438.54 260.47 433.18C274.24 428.05 288.31 428.12 304.11 433.65C320.46 439.38 307.23 495.23 307.23 495.23L254.47 494.89Z" fill="#0183C7"/>
<path d="M146.65 479.24C147.52 452.35 150.96 422.43 166.18 420.39C180.75 418.44 194.45 421.62 208.63 430.52C223.3 439.73 198.03 491.26 198.03 491.26L146.66 479.24H146.65Z" fill="#0183C7"/>
<path d="M285.81 366.69C279.53 350.16 274.13 331.13 283.4 326.07C292.27 321.22 301.89 319.7 313.27 321.54C325.04 323.44 321.9 361.06 321.9 361.06L285.81 366.69Z" fill="#0183C7"/>
<path d="M519.57 466.19C516.67 439.44 510.97 409.87 495.65 408.99C480.98 408.15 467.55 412.36 454.09 422.3C440.16 432.59 469.25 482.06 469.25 482.06L519.57 466.19Z" fill="#0183C7"/>
<path d="M393.79 361.89C398.33 344.8 401.74 325.32 392.01 321.24C382.69 317.33 372.96 316.81 361.83 319.81C350.31 322.91 357.31 360.01 357.31 360.01L393.79 361.9V361.89Z" fill="#0183C7"/>
<path d="M412.7 488.42C415.79 461.7 416.8 431.59 402.05 427.34C387.93 423.27 373.9 424.4 358.57 431.11C342.7 438.06 360.11 492.75 360.11 492.75L412.69 488.42H412.7Z" fill="#0183C7"/>
<path d="M679.975 160.584C680.11 156.275 681.793 153.313 685.025 151.697C688.391 150.082 692.094 149.274 696.133 149.274C699.095 149.274 701.923 149.61 704.616 150.284C707.443 150.957 709.732 152.101 711.483 153.717C713.368 155.333 714.243 157.622 714.108 160.584L708.251 296.712C708.117 299.54 707.174 301.762 705.424 303.378C703.673 304.993 701.384 306.138 698.557 306.811C695.864 307.484 693.036 307.821 690.074 307.821C686.035 307.821 682.332 307.013 678.966 305.397C675.599 303.781 673.984 300.887 674.118 296.712L679.975 160.584ZM693.103 239.959C689.199 240.228 686.304 239.151 684.419 236.727C682.668 234.169 681.793 230.803 681.793 226.629C681.793 221.647 682.803 217.944 684.823 215.52C686.977 213.097 689.805 211.75 693.305 211.481C701.654 210.808 710.473 210.336 719.764 210.067C729.054 209.663 738.412 209.394 747.838 209.259C757.263 209.125 766.352 209.125 775.104 209.259C783.856 209.394 791.935 209.73 799.34 210.269C803.918 210.538 807.217 211.75 809.237 213.904C811.256 215.924 812.266 219.088 812.266 223.397C812.266 229.322 810.92 233.496 808.227 235.919C805.669 238.343 801.562 239.353 795.907 238.949C786.347 238.41 777.527 238.074 769.448 237.939C761.37 237.67 753.425 237.602 745.616 237.737C737.806 237.872 729.66 238.141 721.177 238.545C712.695 238.814 703.337 239.285 693.103 239.959ZM772.68 161.594C773.084 156.747 775.104 153.583 778.739 152.101C782.509 150.486 786.616 149.678 791.059 149.678C796.311 149.678 800.35 150.688 803.178 152.707C806.005 154.592 807.284 157.757 807.015 162.2C805.938 173.376 804.995 184.551 804.187 195.727C803.38 206.903 802.706 218.415 802.168 230.264C801.764 242.113 801.562 254.703 801.562 268.033C801.562 273.688 801.629 279.276 801.764 284.796C801.898 290.182 802.033 294.895 802.168 298.934C802.168 303.108 800.485 306.003 797.118 307.619C793.887 309.235 790.117 310.043 785.808 310.043C781.499 310.043 777.46 309.235 773.69 307.619C769.92 306.003 768.035 303.108 768.035 298.934C767.9 294.895 767.765 290.249 767.631 284.998C767.631 279.612 767.631 274.092 767.631 268.437C767.631 249.855 768.035 231.476 768.843 213.299C769.785 194.987 771.064 177.752 772.68 161.594ZM846.153 210.471C847.5 204.816 849.519 201.18 852.212 199.565C854.905 197.814 858.137 196.939 861.907 196.939C865.542 196.939 868.707 197.545 871.399 198.757C874.092 199.834 876.112 201.652 877.459 204.21C878.805 206.634 879.007 210 878.065 214.308C876.718 219.56 875.506 225.282 874.429 231.476C873.352 237.535 872.477 243.325 871.803 248.845C871.265 254.231 870.996 258.809 870.996 262.579C870.996 265.138 871.13 267.831 871.399 270.658C871.803 273.486 872.477 275.909 873.419 277.929C874.496 279.814 876.045 280.757 878.065 280.757C880.757 280.757 883.45 279.545 886.143 277.121C888.971 274.563 891.664 271.264 894.222 267.225C896.78 263.185 899.069 258.944 901.089 254.501C903.244 249.923 904.994 245.547 906.34 241.373C906.206 236.66 906.273 231.947 906.542 227.235C906.946 222.387 907.418 217.877 907.956 213.703C908.495 209.528 908.966 206.297 909.37 204.008C910.313 200.507 912.332 197.949 915.429 196.333C918.526 194.583 922.363 193.707 926.941 193.707C931.519 193.707 935.155 195.525 937.848 199.161C940.675 202.796 942.089 207.239 942.089 212.491C942.089 214.241 941.955 216.126 941.685 218.146C941.551 220.166 941.281 222.32 940.877 224.609C940.473 226.898 939.935 229.254 939.262 231.678C938.723 234.102 938.117 236.66 937.444 239.353C937.175 241.507 936.973 244.2 936.838 247.432C936.703 250.663 936.636 253.356 936.636 255.51C936.636 261.3 936.905 266.821 937.444 272.072C938.117 277.189 938.79 281.632 939.464 285.402C940.272 289.172 940.877 292.067 941.281 294.087C942.224 297.857 941.955 301.021 940.473 303.579C938.992 306.003 936.905 307.821 934.212 309.033C931.519 310.245 928.759 310.85 925.932 310.85C922.161 310.85 918.795 310.11 915.833 308.629C912.871 307.282 910.918 304.522 909.976 300.348C909.303 297.52 908.697 294.693 908.158 291.865C907.62 288.903 907.148 285.739 906.744 282.373C904.59 286.008 902.234 289.576 899.675 293.077C897.117 296.443 894.357 299.473 891.395 302.166C888.432 304.859 885.133 306.946 881.498 308.427C877.997 310.043 874.294 310.85 870.39 310.85C862.176 310.85 855.713 308.696 851 304.387C846.422 299.944 843.191 294.222 841.306 287.22C839.421 280.084 838.478 272.543 838.478 264.599C838.478 259.617 838.815 254.097 839.488 248.038C840.161 241.844 841.037 235.515 842.114 229.052C843.326 222.455 844.672 216.261 846.153 210.471ZM974.024 153.313C974.294 149.005 975.977 146.11 979.074 144.628C982.305 143.013 985.806 142.205 989.576 142.205C992.269 142.205 994.827 142.609 997.251 143.417C999.675 144.09 1001.69 145.369 1003.31 147.254C1004.93 149.005 1005.6 151.563 1005.33 154.929C1005.2 156.949 1004.93 159.911 1004.52 163.816C1004.25 167.586 1003.92 171.625 1003.51 175.934C1003.24 180.243 1002.97 184.282 1002.7 188.052C1001.76 207.576 1001.09 226.157 1000.68 243.796C1000.42 261.3 1000.42 279.074 1000.68 297.116C1000.82 301.29 999.405 304.185 996.443 305.801C993.615 307.417 990.249 308.225 986.345 308.225C983.652 308.225 981.026 307.888 978.468 307.215C975.909 306.407 973.755 305.128 972.005 303.378C970.254 301.492 969.312 298.867 969.177 295.501C969.042 278.67 969.177 262.243 969.581 246.22C970.12 230.062 970.793 214.241 971.601 198.757C972.409 183.272 973.216 168.124 974.024 153.313ZM1023.99 259.954C1023.99 251.74 1025.2 243.796 1027.62 236.121C1030.04 228.446 1033.48 221.579 1037.92 215.52C1042.5 209.461 1048.02 204.681 1054.48 201.18C1061.08 197.545 1068.55 195.727 1076.9 195.727C1082.15 195.727 1086.73 196.602 1090.64 198.353C1094.68 199.968 1098.24 202.325 1101.34 205.422C1102.01 202.459 1103.16 200.036 1104.77 198.151C1106.39 196.266 1109.28 195.323 1113.46 195.323C1118.31 195.323 1122.55 196.535 1126.18 198.959C1129.82 201.248 1131.57 204.21 1131.43 207.845C1131.3 211.481 1130.69 216.463 1129.62 222.791C1128.54 228.985 1127.6 235.111 1126.79 241.171C1126.52 243.056 1126.12 245.479 1125.58 248.441C1125.17 251.404 1124.77 254.366 1124.36 257.328C1124.1 260.156 1123.89 262.579 1123.76 264.599C1123.62 266.619 1123.56 269.177 1123.56 272.274C1123.56 275.236 1123.96 277.862 1124.77 280.151C1125.58 282.44 1126.92 283.584 1128.81 283.584C1129.89 283.584 1130.83 283.315 1131.64 282.777C1132.44 282.238 1133.25 281.497 1134.06 280.555C1135.41 279.612 1136.55 278.872 1137.49 278.333C1138.57 277.66 1139.92 277.323 1141.53 277.323C1143.42 277.323 1145.1 277.997 1146.58 279.343C1148.2 280.555 1149.41 282.238 1150.22 284.392C1151.16 286.547 1151.23 288.97 1150.42 291.663C1149.88 294.222 1148.13 296.847 1145.17 299.54C1142.21 302.233 1138.7 304.522 1134.67 306.407C1130.76 308.157 1126.86 309.033 1122.95 309.033C1119.05 309.033 1115.48 308.225 1112.25 306.609C1109.01 304.859 1106.25 302.57 1103.97 299.742C1101.81 296.78 1100.33 293.346 1099.52 289.442C1096.02 294.693 1091.38 299.069 1085.59 302.57C1079.93 306.07 1073.54 307.821 1066.4 307.821C1057.51 307.821 1049.9 305.734 1043.58 301.56C1037.25 297.386 1032.4 291.731 1029.03 284.594C1025.67 277.323 1023.99 269.11 1023.99 259.954ZM1058.12 258.54C1058.12 262.849 1058.59 266.753 1059.53 270.254C1060.47 273.62 1061.89 276.313 1063.77 278.333C1065.79 280.353 1068.42 281.363 1071.65 281.363C1074.34 281.363 1076.7 280.757 1078.72 279.545C1080.74 278.199 1082.56 276.448 1084.17 274.294C1085.79 272.005 1087.07 269.379 1088.01 266.417C1089.09 263.32 1090.03 260.088 1090.84 256.722C1091.65 253.356 1092.32 249.923 1092.86 246.422C1093.4 242.921 1093.87 239.487 1094.27 236.121C1094.68 232.755 1095.01 229.456 1095.28 226.225C1093.4 224.474 1091.24 223.128 1088.82 222.185C1086.39 221.108 1083.84 220.57 1081.14 220.57C1077.51 220.57 1074.28 221.579 1071.45 223.599C1068.62 225.484 1066.2 228.177 1064.18 231.678C1062.16 235.179 1060.61 239.218 1059.53 243.796C1058.59 248.374 1058.12 253.289 1058.12 258.54ZM1171.8 238.949C1171.8 232.755 1171.53 227.437 1170.99 222.993C1170.46 218.55 1169.85 214.78 1169.18 211.683C1168.64 208.586 1168.37 206.162 1168.37 204.412C1168.37 201.315 1169.85 198.689 1172.81 196.535C1175.77 194.381 1180.15 193.303 1185.94 193.303C1189.17 193.303 1192.4 194.313 1195.64 196.333C1198.87 198.218 1200.95 201.315 1201.9 205.624C1202.17 206.701 1202.37 208.519 1202.5 211.077C1202.64 213.635 1202.64 217.069 1202.5 221.377C1205.2 215.722 1208.56 211.01 1212.6 207.239C1216.77 203.469 1221.08 200.642 1225.53 198.757C1230.1 196.872 1234.48 195.929 1238.65 195.929C1251.18 195.929 1259.93 200.17 1264.91 208.653C1269.89 217.136 1272.38 229.389 1272.38 245.412C1272.38 250.798 1272.05 256.79 1271.37 263.387C1270.7 269.85 1269.83 276.313 1268.75 282.777C1267.67 289.105 1266.59 294.827 1265.52 299.944C1264.84 303.31 1263.3 305.667 1260.87 307.013C1258.45 308.359 1255.82 309.033 1252.99 309.033C1244.24 309.033 1238.59 307.754 1236.03 305.195C1233.47 302.502 1232.66 298.8 1233.61 294.087C1235.49 286.008 1236.84 277.997 1237.65 270.052C1238.45 262.108 1238.86 253.76 1238.86 245.008C1238.86 238.141 1238.25 233.024 1237.04 229.658C1235.96 226.292 1233.47 224.609 1229.57 224.609C1226.2 224.609 1223.17 225.551 1220.48 227.437C1217.92 229.322 1215.63 232.015 1213.61 235.515C1211.59 238.882 1209.84 242.988 1208.36 247.836C1206.88 252.683 1205.67 258.136 1204.72 264.195C1204.32 266.888 1203.98 269.918 1203.71 273.284C1203.58 276.515 1203.51 280.151 1203.51 284.19C1203.51 288.095 1203.51 292.404 1203.51 297.116C1203.51 301.021 1202.23 303.916 1199.67 305.801C1197.12 307.552 1192.94 308.427 1187.15 308.427C1184.59 308.427 1182.04 308.023 1179.48 307.215C1176.92 306.272 1174.83 304.859 1173.22 302.974C1171.6 301.089 1170.79 298.598 1170.79 295.501C1170.79 293.212 1170.86 289.845 1170.99 285.402C1171.13 280.959 1171.2 276.044 1171.2 270.658C1171.33 265.272 1171.47 259.819 1171.6 254.299C1171.74 248.778 1171.8 243.662 1171.8 238.949ZM1239.79 177.348C1238.31 179.367 1236.22 180.781 1233.53 181.589C1230.97 182.397 1228.07 181.993 1224.84 180.377C1221.88 178.627 1220.2 176.607 1219.79 174.318C1219.39 172.029 1219.66 169.875 1220.6 167.855C1222.08 164.489 1223.97 160.786 1226.26 156.747C1228.41 152.707 1230.7 148.87 1233.12 145.234C1235.55 141.599 1237.63 138.771 1239.38 136.752C1241.67 134.059 1244.23 132.308 1247.06 131.5C1250.02 130.693 1253.45 131.635 1257.36 134.328C1261.13 137.021 1263.42 140.051 1264.23 143.417C1265.17 146.783 1264.5 149.678 1262.21 152.101C1260.46 153.986 1257.36 157.218 1252.92 161.796C1248.47 166.374 1244.1 171.558 1239.79 177.348ZM1346.71 308.023C1338.36 308.023 1331.09 306.474 1324.9 303.378C1318.7 300.146 1313.59 295.837 1309.55 290.451C1305.51 285.066 1302.48 279.141 1300.46 272.678C1298.44 266.08 1297.43 259.415 1297.43 252.683C1297.43 245.008 1298.77 237.737 1301.47 230.87C1304.16 223.868 1307.93 217.742 1312.78 212.491C1317.76 207.239 1323.68 203.133 1330.55 200.17C1337.42 197.074 1345.09 195.525 1353.58 195.525C1358.69 195.525 1363.54 196.198 1368.12 197.545C1372.83 198.757 1377.27 200.844 1381.45 203.806C1385.62 206.768 1389.39 210.875 1392.76 216.126C1393.57 217.338 1394.11 218.55 1394.37 219.762C1394.78 220.839 1394.98 221.983 1394.98 223.195C1394.98 225.484 1394.11 227.571 1392.35 229.456C1390.74 231.207 1388.79 232.62 1386.5 233.698C1384.34 234.775 1382.26 235.313 1380.24 235.313C1378.49 235.313 1376.94 234.842 1375.59 233.9C1374.38 232.957 1373.1 231.611 1371.75 229.86C1369.33 226.494 1366.64 224.205 1363.67 222.993C1360.71 221.647 1357.62 220.973 1354.38 220.973C1351.29 220.973 1348.33 221.714 1345.5 223.195C1342.8 224.676 1340.38 226.831 1338.23 229.658C1336.07 232.486 1334.39 235.919 1333.18 239.959C1331.97 243.863 1331.36 248.307 1331.36 253.289C1331.36 257.194 1331.97 261.368 1333.18 265.811C1334.52 270.12 1336.61 273.822 1339.44 276.919C1342.27 280.016 1345.83 281.565 1350.14 281.565C1355.39 281.565 1359.9 280.151 1363.67 277.323C1367.44 274.496 1371.01 271.197 1374.38 267.427C1375.59 266.08 1376.67 265.205 1377.61 264.801C1378.69 264.263 1379.97 263.993 1381.45 263.993C1383.47 263.993 1385.55 264.666 1387.71 266.013C1390 267.359 1391.95 269.11 1393.57 271.264C1395.18 273.284 1395.99 275.438 1395.99 277.727C1395.99 278.67 1395.86 279.814 1395.59 281.161C1395.32 282.373 1394.51 283.719 1393.16 285.2C1387.1 292.606 1379.83 298.261 1371.35 302.166C1362.87 306.07 1354.65 308.023 1346.71 308.023ZM1464.61 308.023C1455.32 308.023 1447.38 306.474 1440.78 303.378C1434.18 300.281 1428.73 296.241 1424.42 291.259C1420.24 286.143 1417.15 280.42 1415.13 274.092C1413.24 267.629 1412.3 261.166 1412.3 254.703C1412.3 247.566 1413.65 240.565 1416.34 233.698C1419.17 226.696 1423.07 220.368 1428.05 214.712C1433.17 208.923 1439.16 204.277 1446.03 200.776C1453.03 197.276 1460.77 195.525 1469.26 195.525C1476.8 195.525 1483.06 196.737 1488.04 199.161C1493.16 201.45 1496.99 204.748 1499.55 209.057C1502.25 213.366 1503.59 218.482 1503.59 224.407C1503.59 230.735 1502.25 236.323 1499.55 241.171C1496.86 246.018 1493.02 250.125 1488.04 253.491C1481.98 257.53 1475.52 260.56 1468.65 262.579C1461.78 264.464 1454.31 265.676 1446.23 266.215C1447.44 269.042 1448.99 271.668 1450.88 274.092C1452.76 276.381 1455.05 278.266 1457.74 279.747C1460.57 281.228 1463.87 281.969 1467.64 281.969C1472.35 281.969 1476.59 280.824 1480.36 278.535C1484.14 276.111 1487.43 273.351 1490.26 270.254C1491.88 268.504 1493.29 267.427 1494.5 267.023C1495.71 266.484 1496.79 266.215 1497.73 266.215C1499.62 266.215 1501.5 266.888 1503.39 268.235C1505.27 269.581 1506.96 271.197 1508.44 273.082C1510.05 274.967 1511 276.919 1511.27 278.939C1511.81 280.824 1511.6 282.709 1510.66 284.594C1509.85 286.479 1508.98 287.893 1508.03 288.836C1503.05 294.222 1496.79 298.8 1489.25 302.57C1481.85 306.205 1473.63 308.023 1464.61 308.023ZM1444.82 244.2C1448.45 243.931 1451.42 243.594 1453.7 243.19C1456.13 242.652 1458.96 241.709 1462.19 240.363C1465.42 239.151 1468.18 237.266 1470.47 234.707C1472.76 232.149 1473.9 229.12 1473.9 225.619C1473.9 224.272 1473.57 223.06 1472.89 221.983C1472.35 220.906 1471.48 220.031 1470.27 219.358C1469.05 218.684 1467.51 218.348 1465.62 218.348C1463.06 218.348 1460.57 219.223 1458.15 220.973C1455.72 222.589 1453.57 224.744 1451.69 227.437C1449.93 230.129 1448.45 232.957 1447.24 235.919C1446.03 238.882 1445.22 241.642 1444.82 244.2Z" fill="#0183C7"/>
<path d="M666.042 435.812C666.042 431.533 666.636 427.372 667.825 423.331C669.093 419.289 670.995 415.644 673.531 412.394C676.066 409.145 679.276 406.57 683.159 404.668C687.042 402.766 691.678 401.815 697.067 401.815C698.89 401.815 700.831 402.053 702.892 402.528C705.031 402.924 706.735 403.439 708.003 404.073C708.399 399.398 708.796 394.96 709.192 390.76C709.667 386.56 710.183 382.28 710.737 377.922C711.054 376.416 711.728 375.267 712.758 374.474C713.788 373.682 715.017 373.127 716.443 372.81C717.87 372.414 719.217 372.216 720.485 372.216C723.892 372.216 726.508 373.048 728.33 374.712C730.153 376.297 731.064 378.199 731.064 380.418C731.064 381.527 730.826 383.509 730.351 386.362C729.955 389.135 729.479 392.345 728.925 395.99C728.449 399.636 728.013 403.162 727.617 406.57C727.062 411.721 726.706 416.951 726.547 422.261C726.468 427.491 726.428 432.999 726.428 438.784C726.428 442.825 726.468 446.788 726.547 450.671C726.706 454.475 726.824 457.962 726.904 461.132C727.062 463.509 726.151 465.213 724.17 466.243C722.268 467.194 720.049 467.67 717.513 467.67C714.105 467.67 711.53 467.194 709.786 466.243C708.122 465.292 707.131 463.588 706.814 461.132C706.735 460.498 706.656 459.864 706.577 459.23C706.577 458.516 706.537 457.882 706.458 457.328C706.458 456.773 706.458 456.258 706.458 455.782C704.477 459.428 702.179 462.439 699.563 464.817C697.027 467.115 693.62 468.264 689.34 468.264C685.22 468.264 681.693 467.313 678.761 465.411C675.829 463.43 673.412 460.815 671.51 457.565C669.687 454.316 668.3 450.79 667.349 446.986C666.477 443.182 666.042 439.457 666.042 435.812ZM686.131 433.791C686.131 437.437 686.448 440.646 687.082 443.42C687.716 446.193 688.548 448.333 689.578 449.839C690.688 451.345 691.995 452.097 693.501 452.097C695.165 452.097 696.671 451.265 698.018 449.601C699.444 447.858 700.673 445.599 701.703 442.825C702.812 439.973 703.763 436.922 704.556 433.672C705.111 431.691 705.507 429.908 705.745 428.323C706.062 426.738 706.299 425.193 706.458 423.687C706.696 422.102 706.854 420.517 706.933 418.932C705.982 418.457 705.031 418.061 704.08 417.744C703.209 417.427 702.297 417.189 701.346 417.03C700.475 416.872 699.563 416.793 698.612 416.793C696.71 416.793 694.769 417.347 692.788 418.457C690.886 419.487 689.301 421.23 688.033 423.687C686.765 426.144 686.131 429.512 686.131 433.791ZM748.442 376.139C748.442 374.474 748.957 373.167 749.987 372.216C751.017 371.265 752.285 370.591 753.791 370.195C755.297 369.799 756.763 369.601 758.189 369.601C760.725 369.601 762.825 370.076 764.489 371.027C766.154 371.899 766.986 373.603 766.986 376.139C766.906 382.716 766.589 389.73 766.035 397.179C765.559 404.549 765.084 412.038 764.608 419.646C764.291 424.242 764.014 428.918 763.776 433.672C763.618 438.348 763.538 443.024 763.538 447.699C763.538 449.997 763.499 452.216 763.42 454.356C763.42 456.416 763.499 458.794 763.657 461.488C763.816 463.469 762.984 465.094 761.161 466.362C759.338 467.63 756.723 468.264 753.315 468.264C749.908 468.264 747.649 467.511 746.54 466.005C745.43 464.42 744.876 462.637 744.876 460.656C744.876 454.475 744.915 448.928 744.994 444.014C745.153 439.022 745.311 434.504 745.47 430.463C745.708 426.342 745.945 422.617 746.183 419.289C746.5 414.772 746.817 410.334 747.134 405.975C747.451 401.537 747.729 396.901 747.966 392.067C748.204 387.154 748.362 381.844 748.442 376.139ZM777.946 439.259C777.946 434.425 778.659 429.75 780.086 425.232C781.512 420.715 783.533 416.674 786.148 413.108C788.843 409.541 792.092 406.728 795.896 404.668C799.779 402.528 804.177 401.458 809.09 401.458C812.181 401.458 814.875 401.973 817.174 403.004C819.551 403.955 821.651 405.341 823.474 407.164C823.87 405.421 824.544 403.994 825.494 402.885C826.445 401.775 828.149 401.22 830.606 401.22C833.459 401.22 835.955 401.934 838.095 403.36C840.235 404.707 841.265 406.451 841.186 408.591C841.106 410.73 840.75 413.662 840.116 417.387C839.482 421.032 838.927 424.638 838.451 428.204C838.293 429.314 838.055 430.74 837.738 432.484C837.5 434.227 837.263 435.971 837.025 437.714C836.867 439.378 836.748 440.805 836.668 441.993C836.589 443.182 836.55 444.688 836.55 446.51C836.55 448.254 836.787 449.799 837.263 451.146C837.738 452.494 838.531 453.167 839.64 453.167C840.274 453.167 840.829 453.009 841.304 452.692C841.78 452.375 842.255 451.939 842.731 451.384C843.523 450.829 844.197 450.394 844.752 450.077C845.386 449.68 846.178 449.482 847.129 449.482C848.239 449.482 849.229 449.878 850.101 450.671C851.052 451.384 851.765 452.375 852.241 453.643C852.795 454.911 852.835 456.337 852.359 457.922C852.042 459.428 851.012 460.973 849.269 462.558C847.525 464.143 845.465 465.49 843.087 466.6C840.789 467.63 838.491 468.145 836.193 468.145C833.895 468.145 831.795 467.67 829.893 466.719C827.991 465.688 826.366 464.341 825.019 462.677C823.751 460.934 822.879 458.913 822.404 456.615C820.343 459.705 817.609 462.281 814.202 464.341C810.873 466.402 807.109 467.432 802.909 467.432C797.679 467.432 793.201 466.203 789.476 463.747C785.752 461.29 782.899 457.962 780.918 453.762C778.937 449.482 777.946 444.648 777.946 439.259ZM798.035 438.427C798.035 440.963 798.313 443.261 798.867 445.322C799.422 447.303 800.254 448.888 801.364 450.077C802.552 451.265 804.098 451.86 806 451.86C807.585 451.86 808.971 451.503 810.16 450.79C811.349 449.997 812.419 448.967 813.37 447.699C814.321 446.352 815.073 444.807 815.628 443.063C816.262 441.24 816.817 439.339 817.292 437.357C817.768 435.376 818.164 433.355 818.481 431.295C818.798 429.234 819.075 427.214 819.313 425.232C819.551 423.251 819.749 421.31 819.908 419.408C818.798 418.378 817.53 417.585 816.104 417.03C814.677 416.396 813.172 416.079 811.587 416.079C809.447 416.079 807.545 416.674 805.881 417.862C804.217 418.972 802.79 420.557 801.601 422.617C800.413 424.678 799.501 427.055 798.867 429.75C798.313 432.444 798.035 435.337 798.035 438.427ZM916.061 467.67C910.91 467.67 907.106 466.996 904.65 465.649C902.272 464.222 901.084 462.122 901.084 459.349C901.084 456.813 901.718 454.95 902.986 453.762C904.254 452.494 906.155 451.86 908.691 451.86C920.499 451.86 929.93 451.424 936.983 450.552C944.036 449.601 949.108 448.135 952.198 446.154C955.289 444.093 956.834 441.32 956.834 437.833C956.834 434.108 955.487 431.216 952.793 429.155C950.098 427.016 946.334 425.946 941.5 425.946C940.549 425.946 939.519 426.025 938.409 426.183C937.3 426.263 936.151 426.421 934.962 426.659C933.853 426.897 932.743 427.174 931.634 427.491C929.494 428.204 927.315 428.323 925.096 427.848C922.956 427.372 921.133 426.5 919.628 425.232C918.122 423.885 917.369 422.3 917.369 420.478C917.369 418.1 917.884 416.436 918.914 415.485C920.024 414.534 921.094 413.781 922.124 413.226C924.501 412.038 927.275 411.166 930.445 410.611C933.615 410.057 937.221 409.977 941.262 410.374C945.304 409.74 948.394 408.709 950.534 407.283C952.753 405.777 953.863 403.558 953.863 400.626C953.863 398.328 952.713 396.426 950.415 394.92C948.117 393.415 944.749 392.266 940.311 391.473C935.953 390.681 930.564 390.284 924.145 390.284C922.877 390.284 921.331 390.364 919.509 390.522C917.686 390.601 915.863 390.681 914.041 390.76C912.218 390.839 910.673 390.918 909.405 390.998C907.899 390.998 906.671 390.681 905.72 390.047C904.848 389.333 904.174 388.501 903.699 387.55C903.303 386.52 903.065 385.569 902.986 384.697C902.669 380.973 904.214 378.476 907.622 377.208C911.029 375.941 915.982 375.307 922.48 375.307C933.496 375.307 942.728 376.258 950.178 378.159C957.706 380.061 963.372 382.756 967.176 386.243C970.98 389.73 972.882 393.85 972.882 398.605C972.882 402.251 971.812 405.658 969.672 408.828C967.612 411.998 964.482 414.534 960.282 416.436C965.987 418.417 970.267 421.349 973.12 425.232C976.052 429.116 977.518 433.514 977.518 438.427C977.518 445.005 975.299 450.473 970.861 454.831C966.502 459.111 959.766 462.32 950.653 464.46C941.619 466.52 930.088 467.59 916.061 467.67ZM914.635 466.837C912.575 466.837 910.752 466.243 909.167 465.054C907.582 463.866 906.869 462.281 907.027 460.3C907.661 452.216 908.137 443.935 908.454 435.455C908.85 426.976 909.207 418.378 909.524 409.66C909.92 400.943 910.356 392.226 910.831 383.509C910.99 381.924 911.901 380.775 913.565 380.061C915.229 379.269 917.448 378.873 920.222 378.873C921.807 378.873 923.392 379.071 924.977 379.467C926.562 379.863 927.869 380.537 928.9 381.488C929.93 382.36 930.405 383.588 930.326 385.173C929.851 393.335 929.375 401.656 928.9 410.136C928.503 418.615 928.067 427.055 927.592 435.455C927.196 443.776 926.76 451.979 926.284 460.062C926.126 462.677 925.016 464.46 922.956 465.411C920.896 466.362 918.122 466.837 914.635 466.837ZM987.995 438.784C987.995 434.108 988.748 429.591 990.254 425.232C991.839 420.874 994.018 416.951 996.792 413.464C999.645 409.977 1002.97 407.243 1006.78 405.262C1010.58 403.202 1014.78 402.171 1019.38 402.171C1021.52 402.171 1023.78 402.528 1026.15 403.241C1028.53 403.955 1031.03 405.183 1033.64 406.926C1034.04 404.866 1034.95 403.519 1036.38 402.885C1037.88 402.171 1039.39 401.815 1040.89 401.815C1043.83 401.815 1046.16 402.568 1047.91 404.073C1049.73 405.579 1050.64 407.877 1050.64 410.968C1050.64 412.315 1050.48 414.177 1050.17 416.555C1049.85 418.853 1049.45 421.349 1048.98 424.044C1048.5 426.659 1048.03 429.195 1047.55 431.652C1047.07 434.029 1046.68 435.971 1046.36 437.476C1046.12 439.854 1046 442.271 1046 444.727C1046 446.392 1046.16 447.977 1046.48 449.482C1046.8 450.988 1047.23 452.216 1047.79 453.167C1048.34 454.118 1049.02 454.594 1049.81 454.594C1050.84 454.594 1051.59 454.396 1052.07 453.999C1052.54 453.524 1052.9 452.93 1053.14 452.216C1053.37 451.503 1053.69 450.79 1054.09 450.077C1054.56 449.126 1055.28 448.333 1056.23 447.699C1057.26 446.986 1058.45 446.629 1059.79 446.629C1061.38 446.629 1062.8 447.105 1064.07 448.056C1065.34 449.007 1065.97 450.552 1065.97 452.692C1065.97 453.96 1065.7 455.426 1065.14 457.09C1064.59 458.754 1063.68 460.3 1062.41 461.726C1061.38 462.994 1060.07 464.143 1058.49 465.173C1056.98 466.124 1055.24 466.877 1053.26 467.432C1051.35 468.066 1049.17 468.383 1046.72 468.383C1043.79 468.383 1041.41 467.868 1039.59 466.837C1037.76 465.807 1036.26 464.5 1035.07 462.915C1033.88 461.251 1032.81 459.467 1031.86 457.565C1029.8 459.943 1026.95 462.083 1023.3 463.985C1019.73 465.886 1015.65 466.837 1011.06 466.837C1007.17 466.837 1003.77 466.005 1000.83 464.341C997.901 462.677 995.484 460.498 993.582 457.803C991.68 455.109 990.254 452.097 989.303 448.769C988.431 445.441 987.995 442.112 987.995 438.784ZM1008.2 438.427C1008.2 440.408 1008.4 442.191 1008.8 443.776C1009.27 445.282 1009.91 446.59 1010.7 447.699C1011.49 448.809 1012.4 449.641 1013.43 450.195C1014.46 450.75 1015.57 451.028 1016.76 451.028C1018.74 451.028 1020.45 450.433 1021.87 449.244C1023.3 447.977 1024.49 446.075 1025.44 443.539C1026.47 441.003 1027.38 437.793 1028.17 433.91C1028.97 430.027 1029.72 425.431 1030.43 420.121C1028.93 418.932 1027.54 418.061 1026.27 417.506C1025 416.872 1023.66 416.555 1022.23 416.555C1020.49 416.555 1018.9 416.951 1017.48 417.744C1016.05 418.457 1014.74 419.487 1013.55 420.834C1012.44 422.102 1011.49 423.648 1010.7 425.47C1009.91 427.293 1009.27 429.314 1008.8 431.533C1008.4 433.672 1008.2 435.971 1008.2 438.427ZM1076.99 499.408C1074.77 499.408 1072.36 499.052 1069.74 498.338C1067.21 497.625 1064.75 496.555 1062.37 495.129C1059.99 493.782 1057.93 492.197 1056.19 490.374C1055.64 489.74 1054.96 488.868 1054.17 487.759C1053.38 486.729 1052.98 485.698 1052.98 484.668C1052.98 482.291 1053.54 480.389 1054.64 478.962C1055.75 477.536 1057.02 476.506 1058.45 475.872C1059.8 475.238 1060.91 474.921 1061.78 474.921C1062.33 474.921 1062.89 475 1063.44 475.158C1064 475.317 1064.51 475.713 1064.99 476.347C1066.65 478.249 1068 479.715 1069.03 480.745C1070.06 481.776 1071.25 482.291 1072.59 482.291C1073.39 482.291 1074.06 481.855 1074.62 480.983C1075.25 480.191 1075.76 479.121 1076.16 477.774C1076.64 476.426 1076.99 475.04 1077.23 473.613C1077.55 472.187 1077.79 470.879 1077.94 469.69C1078.82 463.271 1079.25 457.011 1079.25 450.909C1079.25 444.807 1079.25 438.705 1079.25 432.603C1079.25 428.006 1079.33 423.449 1079.49 418.932C1079.65 414.336 1080.04 409.898 1080.68 405.619C1080.84 404.43 1081.39 403.519 1082.34 402.885C1083.37 402.171 1084.48 401.696 1085.67 401.458C1086.86 401.22 1087.73 401.102 1088.29 401.102C1089.39 401.102 1090.66 401.3 1092.09 401.696C1093.52 402.092 1094.86 402.647 1096.13 403.36C1097.48 404.073 1098.51 404.866 1099.22 405.738C1100.01 406.609 1100.33 407.521 1100.17 408.472C1099.93 409.502 1099.74 411.483 1099.58 414.415C1099.42 417.268 1099.3 420.557 1099.22 424.282C1099.14 428.006 1099.1 431.81 1099.1 435.693C1099.1 439.497 1099.14 442.905 1099.22 445.916C1099.38 450.037 1099.3 454.158 1098.98 458.279C1098.75 462.4 1098.35 466.481 1097.8 470.522C1097.24 474.643 1096.49 478.764 1095.54 482.885C1094.9 486.451 1093.52 489.463 1091.38 491.919C1089.32 494.376 1086.98 496.238 1084.36 497.506C1081.75 498.774 1079.29 499.408 1076.99 499.408ZM1092.45 391.354C1089.99 391.354 1087.85 390.364 1086.03 388.382C1083.81 388.303 1081.95 387.63 1080.44 386.362C1079.01 385.094 1078.3 383.429 1078.3 381.369C1078.3 379.546 1078.82 377.922 1079.85 376.495C1080.96 375.069 1082.3 373.959 1083.89 373.167C1085.55 372.295 1087.29 371.859 1089.12 371.859H1089.24C1092.41 371.859 1095.1 372.771 1097.32 374.593C1099.54 376.416 1100.65 378.873 1100.65 381.963C1100.65 385.054 1099.78 387.392 1098.03 388.977C1096.29 390.562 1094.43 391.354 1092.45 391.354ZM1123.45 391.473C1123.69 389.65 1124.4 388.224 1125.59 387.194C1126.85 386.084 1128.99 385.529 1132.01 385.529C1133.99 385.529 1135.89 385.767 1137.71 386.243C1139.53 386.639 1140.96 387.352 1141.99 388.382C1143.02 389.333 1143.38 390.72 1143.06 392.543C1142.59 396.664 1142.11 400.943 1141.63 405.381C1141.16 409.74 1140.8 414.257 1140.56 418.932C1140.33 423.529 1140.29 428.284 1140.45 433.197C1140.6 438.269 1140.88 442.112 1141.28 444.727C1141.75 447.263 1142.31 448.967 1142.94 449.839C1143.58 450.631 1144.21 451.028 1144.84 451.028C1145.56 451.028 1146.35 450.711 1147.22 450.077C1148.09 449.363 1148.93 448.571 1149.72 447.699C1150.59 446.748 1151.26 445.995 1151.74 445.441C1152.21 444.886 1152.77 444.41 1153.4 444.014C1154.12 443.539 1154.91 443.301 1155.78 443.301C1156.97 443.301 1158.2 443.618 1159.47 444.252C1160.73 444.886 1161.8 445.797 1162.67 446.986C1163.63 448.095 1164.1 449.403 1164.1 450.909C1164.1 451.463 1163.94 452.414 1163.63 453.762C1163.31 455.03 1162.2 456.615 1160.3 458.516C1158.16 460.656 1155.78 462.439 1153.17 463.866C1150.55 465.292 1147.97 466.362 1145.44 467.075C1142.9 467.709 1140.64 468.026 1138.66 468.026C1133.59 468.026 1129.83 466.719 1127.37 464.103C1124.91 461.488 1123.17 457.922 1122.14 453.405C1121.43 449.918 1120.95 446.51 1120.71 443.182C1120.55 439.854 1120.48 436.406 1120.48 432.84C1120.48 428.006 1120.55 423.331 1120.71 418.813C1120.95 414.296 1121.27 409.819 1121.66 405.381C1122.14 400.864 1122.73 396.228 1123.45 391.473ZM1117.62 417.506C1116.12 417.585 1114.81 417.03 1113.7 415.842C1112.67 414.653 1112.15 412.87 1112.15 410.492C1112.15 408.194 1112.67 406.49 1113.7 405.381C1114.81 404.272 1116.12 403.677 1117.62 403.598C1119.68 403.439 1122.26 403.321 1125.35 403.241C1128.44 403.083 1131.73 403.004 1135.22 403.004C1138.78 402.924 1142.39 402.885 1146.03 402.885C1149.68 402.805 1153.13 402.766 1156.37 402.766C1157.72 402.766 1158.99 403.321 1160.18 404.43C1161.37 405.539 1161.96 407.441 1161.96 410.136C1161.96 412.355 1161.33 414.019 1160.06 415.128C1158.87 416.159 1157.64 416.674 1156.37 416.674C1153.05 416.674 1149.76 416.713 1146.51 416.793C1143.34 416.793 1140.17 416.832 1137 416.911C1133.83 416.911 1130.62 416.991 1127.37 417.149C1124.2 417.228 1120.95 417.347 1117.62 417.506ZM1180.7 376.139C1180.94 373.682 1181.77 371.939 1183.2 370.908C1184.7 369.878 1187.32 369.363 1191.04 369.363C1193.82 369.363 1195.84 369.72 1197.1 370.433C1198.45 371.146 1199.32 372.097 1199.72 373.286C1200.12 374.395 1200.27 375.584 1200.19 376.852C1200.04 379.071 1199.72 382.518 1199.24 387.194C1198.77 391.869 1198.21 398.368 1197.58 406.689C1197.02 415.01 1196.55 425.787 1196.15 439.022C1196.07 443.222 1195.95 447.224 1195.8 451.028C1195.64 454.831 1195.52 458.239 1195.44 461.251C1195.36 463.945 1194.57 465.807 1193.06 466.837C1191.64 467.788 1189.18 468.264 1185.69 468.264C1182.13 468.264 1179.55 467.788 1177.97 466.837C1176.46 465.807 1175.75 463.786 1175.83 460.775C1176.06 453.96 1176.3 446.986 1176.54 439.854C1176.86 432.642 1177.21 425.431 1177.61 418.219C1178.01 411.008 1178.44 403.875 1178.92 396.822C1179.47 389.69 1180.07 382.795 1180.7 376.139ZM1217.04 408.591C1217.04 407.006 1217.52 405.698 1218.47 404.668C1219.42 403.638 1220.65 402.845 1222.15 402.29C1223.66 401.736 1225.13 401.458 1226.55 401.458C1229.88 401.458 1232.38 402.053 1234.04 403.241C1235.71 404.43 1236.54 406.213 1236.54 408.591C1236.54 413.979 1236.38 418.813 1236.06 423.093C1235.82 427.293 1235.51 431.374 1235.11 435.337C1234.79 439.22 1234.48 443.301 1234.16 447.58C1233.84 451.86 1233.61 456.773 1233.45 462.32C1233.37 464.539 1232.46 466.164 1230.71 467.194C1228.97 468.304 1226.59 468.858 1223.58 468.858C1220.81 468.858 1218.71 468.462 1217.28 467.67C1215.85 466.877 1214.9 465.926 1214.43 464.817C1213.95 463.628 1213.71 462.439 1213.71 461.251C1213.71 460.537 1213.79 458.794 1213.95 456.02C1214.19 453.246 1214.47 449.839 1214.78 445.797C1215.1 441.756 1215.42 437.476 1215.74 432.959C1216.13 428.442 1216.45 424.044 1216.69 419.764C1216.92 415.485 1217.04 411.76 1217.04 408.591ZM1216.69 382.558C1216.69 380.339 1217.16 378.397 1218.11 376.733C1219.06 375.069 1220.33 373.801 1221.92 372.929C1223.58 371.978 1225.4 371.503 1227.38 371.503C1230.79 371.503 1233.37 372.057 1235.11 373.167C1236.93 374.197 1238.16 375.465 1238.8 376.971C1239.43 378.476 1239.75 379.903 1239.75 381.25C1239.75 384.578 1238.6 387.233 1236.3 389.214C1234.08 391.116 1231.19 392.067 1227.62 392.067C1224.37 392.067 1221.72 391.275 1219.66 389.69C1217.68 388.026 1216.69 385.648 1216.69 382.558Z" fill="#0183C7"/>
</g>
<defs>
<clipPath id="clip0_115_370">
<rect width="1568" height="502" fill="white"/>
</clipPath>
</defs>
</svg>
